<svg width="209" height="56" xmlns="http://www.w3.org/2000/svg"><g fill="none" fill-rule="evenodd"><path fill="#373435" d="M91 0h41l-16.226 28L132 56H91l16.939-28z"/><path fill="#C88D17" d="M106.491 24.837l4.466 6.717 10.33 17.537-19.422-.197 4.324-8.275z"/><path fill="#1D72A2" d="M117.146 31.276l-4.767-7.867-11.424-17.34h20.515l-4.324 8.276z"/><g fill-rule="nonzero"><path d="M22.44 11.76V40h-4.6V27.32H4.56V40H0V11.76h4.56V23.6h13.28V11.76h4.6zm26 16.16c0 .747-.053 1.4-.16 1.96H31.32c.08 2.267.707 3.947 1.88 5.04s2.627 1.64 4.36 1.64c1.52 0 2.807-.387 3.86-1.16 1.053-.773 1.7-1.8 1.94-3.08h4.88c-.293 1.547-.907 2.92-1.84 4.12-.933 1.2-2.147 2.14-3.64 2.82-1.493.68-3.16 1.02-5 1.02-2.133 0-4.02-.453-5.66-1.36-1.64-.907-2.927-2.213-3.86-3.92-.933-1.707-1.4-3.72-1.4-6.04 0-2.293.467-4.293 1.4-6 .933-1.707 2.22-3.013 3.86-3.92 1.64-.907 3.527-1.36 5.66-1.36 2.16 0 4.047.447 5.66 1.34 1.613.893 2.853 2.12 3.72 3.68s1.3 3.3 1.3 5.22zm-4.6-1.12c.053-1.333-.193-2.45-.74-3.352a4.992 4.992 0 00-2.24-2c-.947-.432-1.98-.648-3.1-.648-1.787 0-3.28.506-4.48 1.519-1.2 1.012-1.853 2.506-1.96 4.481h12.52zM57.4 10.4V40h-4.56V10.4h4.56zm4.88 1.16c0-.773.267-1.413.8-1.92.533-.507 1.24-.76 2.12-.76.88 0 1.593.253 2.14.76.547.507.82 1.147.82 1.92 0 .773-.273 1.4-.82 1.88-.547.48-1.26.72-2.14.72-.88 0-1.587-.24-2.12-.72-.533-.48-.8-1.107-.8-1.88zm5.2 6.4V40h-4.56V17.96h4.56zM86.04 40l-5.4-7.8-4.72 7.8h-5.08l7.28-11.44-7.36-10.6h5.16l5.28 7.6 4.68-7.6h5.04l-7.28 11.12L91.2 40h-5.16z" fill="#1D72A2"/><path d="M148.64 33.88h-11.92L134.56 40h-4.88l10.4-27.8h5.24L155.68 40h-4.88l-2.16-6.12zm-1.28-3.52l-4.68-13.2-4.68 13.2h9.36zm24.36-12.68c1.92 0 3.633.453 5.14 1.36 1.507.907 2.687 2.213 3.54 3.92.853 1.707 1.28 3.707 1.28 6 0 2.32-.427 4.333-1.28 6.04-.853 1.707-2.033 3.013-3.54 3.92-1.507.907-3.22 1.36-5.14 1.36-2 0-3.707-.493-5.12-1.48a7.74 7.74 0 01-2.96-3.92v15.6h-4.56V17.96h4.56v5.12a7.74 7.74 0 012.96-3.92c1.413-.987 3.12-1.48 5.12-1.48zm-.4 4c-1.28 0-2.427.3-3.44.9-1.013.6-1.813 1.453-2.4 2.56s-.88 2.38-.88 3.82c0 1.467.293 2.747.88 3.84s1.387 1.94 2.4 2.54c1.013.6 2.16.9 3.44.9 2.027 0 3.653-.647 4.88-1.94 1.227-1.293 1.84-3.073 1.84-5.34 0-2.24-.613-4.013-1.84-5.32-1.227-1.307-2.853-1.96-4.88-1.96zm27.4-4c1.92 0 3.633.453 5.14 1.36 1.507.907 2.687 2.213 3.54 3.92.853 1.707 1.28 3.707 1.28 6 0 2.32-.427 4.333-1.28 6.04-.853 1.707-2.033 3.013-3.54 3.92-1.507.907-3.22 1.36-5.14 1.36-2 0-3.707-.493-5.12-1.48a7.74 7.74 0 01-2.96-3.92v15.6h-4.56V17.96h4.56v5.12a7.74 7.74 0 012.96-3.92c1.413-.987 3.12-1.48 5.12-1.48zm-.4 4c-1.28 0-2.427.3-3.44.9-1.013.6-1.813 1.453-2.4 2.56s-.88 2.38-.88 3.82c0 1.467.293 2.747.88 3.84s1.387 1.94 2.4 2.54c1.013.6 2.16.9 3.44.9 2.027 0 3.653-.647 4.88-1.94 1.227-1.293 1.84-3.073 1.84-5.34 0-2.24-.613-4.013-1.84-5.32-1.227-1.307-2.853-1.96-4.88-1.96z" fill="#C88D17"/></g></g></svg>